<?xml version="1.0" encoding="UTF-8"?>
<svg id="Camada_1" data-name="Camada 1" xmlns="http://www.w3.org/2000/svg" viewBox="0 0 1080 1080">
  <defs>
    <style>
      .cls-1 {
        stroke-width: 0px;
      }
    </style>
  </defs>
  <circle class="cls-1" cx="773.174" cy="865.125" r="14.947"/>
  <circle class="cls-1" cx="764.538" cy="789.727" r="7.307"/>
  <circle class="cls-1" cx="699.104" cy="857.486" r="10.629"/>
  <circle class="cls-1" cx="635.732" cy="853.404" r="7.376"/>
  <circle class="cls-1" cx="631.552" cy="811.608" r="7.376"/>
  <circle class="cls-1" cx="685.486" cy="929.895" r="17.604"/>
  <circle class="cls-1" cx="616.73" cy="904.651" r="14.615"/>
  <circle class="cls-1" cx="557.275" cy="866.786" r="5.979"/>
  <circle class="cls-1" cx="479.219" cy="876.086" r="7.972"/>
  <circle class="cls-1" cx="527.049" cy="927.57" r="18.268"/>
  <circle class="cls-1" cx="587.169" cy="973.075" r="19.929"/>
  <circle class="cls-1" cx="479.219" cy="987.358" r="23.915"/>
  <circle class="cls-1" cx="432.718" cy="928.899" r="17.604"/>
  <circle class="cls-1" cx="399.835" cy="866.122" r="9.3"/>
  <circle class="cls-1" cx="374.439" cy="803.442" r="3.654"/>
  <circle class="cls-1" cx="341.376" cy="902.659" r="19.265"/>
  <circle class="cls-1" cx="370.605" cy="973.075" r="23.251"/>
  <circle class="cls-1" cx="327.093" cy="834.899" r="12.954"/>
  <circle class="cls-1" cx="328.09" cy="767.805" r="4.982"/>
  <circle class="cls-1" cx="263.984" cy="787.402" r="15.943"/>
  <circle class="cls-1" cx="259.998" cy="856.489" r="22.919"/>
  <circle class="cls-1" cx="270.627" cy="933.549" r="27.901"/>
  <circle class="cls-1" cx="282.252" cy="723.628" r="7.972"/>
  <circle class="cls-1" cx="262.655" cy="786.737" r="17.604"/>
  <circle class="cls-1" cx="259.998" cy="856.489" r="21.922"/>
  <circle class="cls-1" cx="270.627" cy="933.549" r="27.901"/>
  <circle class="cls-1" cx="185.264" cy="865.79" r="30.226"/>
  <circle class="cls-1" cx="193.568" cy="789.727" r="25.576"/>
  <circle class="cls-1" cx="215.822" cy="722.632" r="17.936"/>
  <circle class="cls-1" cx="118.833" cy="780.094" r="33.88"/>
  <circle class="cls-1" cx="146.07" cy="707.685" r="26.572"/>
  <circle class="cls-1" cx="185.596" cy="647.897" r="19.597"/>
  <circle class="cls-1" cx="232.762" cy="602.06" r="12.622"/>
  <circle class="cls-1" cx="285.906" cy="570.838" r="5.979"/>
  <circle class="cls-1" cx="292.881" cy="621.325" r="3.322"/>
  <circle class="cls-1" cx="292.881" cy="521.015" r="7.64"/>
  <circle class="cls-1" cx="232.43" cy="538.287" r="17.604"/>
  <circle class="cls-1" cx="174.635" cy="572.499" r="22.586"/>
  <circle class="cls-1" cx="121.823" cy="617.671" r="32.219"/>
  <circle class="cls-1" cx="77.314" cy="679.452" r="10.961"/>
  <circle class="cls-1" cx="63.696" cy="571.502" r="12.954"/>
  <circle class="cls-1" cx="122.487" cy="524.337" r="6.975"/>
  <circle class="cls-1" cx="185.264" cy="492.782" r="25.576"/>
  <circle class="cls-1" cx="249.369" cy="475.178" r="18.933"/>
  <circle class="cls-1" cx="311.814" cy="472.853" r="10.297"/>
  <circle class="cls-1" cx="343.036" cy="433.659" r="13.95"/>
  <circle class="cls-1" cx="382.563" cy="402.436" r="16.608"/>
  <circle class="cls-1" cx="281.92" cy="419.376" r="19.597"/>
  <circle class="cls-1" cx="216.154" cy="418.712" r="6.311"/>
  <circle class="cls-1" cx="249.369" cy="475.178" r="18.933"/>
  <circle class="cls-1" cx="120.826" cy="522.676" r="10.297"/>
  <circle class="cls-1" cx="76.982" cy="462.556" r="16.608"/>
  <circle class="cls-1" cx="146.07" cy="431.998" r="10.629"/>
  <circle class="cls-1" cx="119.83" cy="363.242" r="16.94"/>
  <circle class="cls-1" cx="194.896" cy="350.953" r="13.95"/>
  <circle class="cls-1" cx="264.98" cy="356.267" r="5.647"/>
  <circle class="cls-1" cx="186.26" cy="276.551" r="20.593"/>
  <circle class="cls-1" cx="259.666" cy="284.522" r="15.279"/>
  <circle class="cls-1" cx="327.425" cy="307.109" r="7.307"/>
  <circle class="cls-1" cx="272.288" cy="210.784" r="23.251"/>
  <circle class="cls-1" cx="342.372" cy="237.024" r="18.933"/>
  <circle class="cls-1" cx="401.163" cy="276.883" r="9.632"/>
  <circle class="cls-1" cx="447.665" cy="322.055" r="7.972"/>
  <circle class="cls-1" cx="440.775" cy="366.404" r="11.531"/>
  <circle class="cls-1" cx="513.099" cy="306.666" r="9.632"/>
  <circle class="cls-1" cx="502.65" cy="350.551" r="9.632"/>
  <circle class="cls-1" cx="574.879" cy="341.32" r="11.293"/>
  <circle class="cls-1" cx="372.598" cy="168.933" r="24.911"/>
  <circle class="cls-1" cx="433.382" cy="213.109" r="20.926"/>
  <circle class="cls-1" cx="480.548" cy="267.25" r="12.954"/>
  <circle class="cls-1" cx="559.6" cy="276.551" r="16.275"/>
  <circle class="cls-1" cx="632.674" cy="305.448" r="18.268"/>
  <circle class="cls-1" cx="617.062" cy="237.689" r="26.24"/>
  <circle class="cls-1" cx="527.381" cy="213.774" r="22.586"/>
  <circle class="cls-1" cx="479.551" cy="156.311" r="23.915"/>
  <circle class="cls-1" cx="587.833" cy="168.269" r="31.222"/>
  <circle class="cls-1" cx="679.023" cy="193.163" r="34.544"/>
  <circle class="cls-1" cx="699.104" cy="286.515" r="29.562"/>
  <circle class="cls-1" cx="695.783" cy="356.599" r="21.922"/>
  <circle class="cls-1" cx="689.631" cy="804.369" r="13.061"/>
  <circle class="cls-1" cx="291.263" cy="672.712" r="16.98"/>
  <circle class="cls-1" cx="333.059" cy="364.206" r="11.755"/>
  <circle class="cls-1" cx="387.128" cy="333.704" r="15.673"/>
  <circle class="cls-1" cx="248.041" cy="649.226" r="11.088"/>
  <circle class="cls-1" cx="424.326" cy="820.296" r="6.72"/>
  <circle class="cls-1" cx="509.891" cy="836.79" r="6.956"/>
  <circle class="cls-1" cx="578.145" cy="830.995" r="7.972"/>
  <circle class="cls-1" cx="461.941" cy="834.092" r="3.986"/>
  <path class="cls-1" d="m998.538,483.463c-2.676-1.155-4.998-2.727-6.965-4.714-1.967-1.986-3.518-4.318-4.653-6.995-1.135-2.677-1.704-5.514-1.704-8.516s.569-5.84,1.704-8.516c1.135-2.677,2.696-5.018,4.684-7.026,1.988-2.007,4.329-3.599,7.027-4.776,2.696-1.176,5.586-1.764,8.667-1.764s5.961.579,8.639,1.734c2.676,1.156,4.998,2.729,6.965,4.714,1.965,1.988,3.516,4.319,4.653,6.996,1.135,2.677,1.704,5.515,1.704,8.516s-.569,5.84-1.704,8.516c-1.137,2.677-2.698,5.018-4.684,7.026-1.988,2.007-4.331,3.599-7.027,4.776-2.698,1.176-5.586,1.763-8.667,1.763s-5.961-.578-8.639-1.734Zm16.455-2.038c2.412-1.054,4.502-2.472,6.265-4.258,1.763-1.784,3.153-3.883,4.167-6.296,1.012-2.412,1.52-4.997,1.52-7.755,0-2.716-.498-5.282-1.49-7.695-.996-2.412-2.373-4.511-4.137-6.296-1.765-1.785-3.843-3.194-6.235-4.228-2.394-1.035-4.99-1.552-7.788-1.552s-5.404.528-7.816,1.582c-2.412,1.055-4.502,2.474-6.265,4.258-1.763,1.786-3.143,3.894-4.137,6.327-.994,2.434-1.49,5.009-1.49,7.726,0,2.758.496,5.333,1.49,7.726.994,2.393,2.363,4.482,4.106,6.265,1.743,1.785,3.812,3.194,6.204,4.228,2.394,1.035,4.99,1.551,7.788,1.551s5.402-.527,7.816-1.582Zm-16.637-30.414h10.28c2.678,0,4.827.649,6.449,1.946,1.62,1.299,2.433,3.103,2.433,5.414,0,1.906-.498,3.437-1.49,4.593-.996,1.155-2.282,1.957-3.863,2.402l6.265,8.699h-5.231l-5.657-7.968h-4.745v7.968h-4.441v-23.054Zm10.098,11.253c1.418,0,2.543-.323,3.376-.973.831-.648,1.247-1.541,1.247-2.677,0-1.176-.416-2.078-1.247-2.706-.833-.629-1.957-.943-3.376-.943h-5.657v7.299h5.657Z"/>
  <g>
    <path class="cls-1" d="m635.145,493.972h-147.051v71.309h130.425v41.012h-130.425v105.3h-45.076v-258.633h192.127v41.011Z"/>
    <path class="cls-1" d="m794.758,711.594h-45.816v-216.514h-82.023v-42.119h209.862v42.119h-82.023v216.514Z"/>
    <path class="cls-1" d="m957.693,452.961v258.633h-45.076v-258.633h45.076Z"/>
  </g>
  <circle class="cls-1" cx="810.969" cy="796.25" r="12.954"/>
</svg>